<svg xmlns="http://www.w3.org/2000/svg" xmlns:xlink="http://www.w3.org/1999/xlink" id="svg" width="400" height="400" viewBox="0, 0, 400,400"><g id="svgg"><path id="path0" d="M178.084 1.579 C 123.302 11.234,84.780 52.162,75.338 110.742 L 74.929 113.281 68.588 113.281 C 60.832 113.281,56.626 115.326,53.536 120.597 L 51.563 123.965 51.563 148.438 L 51.563 172.910 53.536 176.278 C 57.509 183.056,59.493 183.594,80.537 183.594 L 98.828 183.594 98.828 149.805 C 98.828 101.911,101.806 88.915,117.970 66.247 C 162.170 4.266,256.606 12.248,290.840 80.859 C 299.782 98.780,301.172 108.056,301.172 149.805 L 301.172 183.594 319.463 183.594 C 340.507 183.594,342.491 183.056,346.464 176.278 L 348.438 172.910 348.438 148.438 L 348.438 123.965 346.464 120.597 C 343.374 115.326,339.168 113.281,331.412 113.281 L 325.071 113.281 324.662 110.742 C 321.838 93.227,319.067 83.668,313.184 71.154 C 289.464 20.697,233.407 -8.171,178.084 1.579 M184.375 48.044 C 153.896 54.179,127.342 80.850,123.021 109.669 L 122.479 113.281 151.178 113.281 C 199.498 113.281,210.509 110.552,249.805 88.840 C 266.089 79.842,265.405 80.863,259.725 74.021 C 242.384 53.129,211.687 42.546,184.375 48.044 M266.406 105.273 C 223.551 130.338,203.886 135.690,151.701 136.489 L 121.760 136.948 122.065 161.638 C 122.417 190.109,122.873 192.796,129.711 206.687 C 157.636 263.414,239.935 264.710,269.244 208.884 C 277.416 193.320,278.125 188.496,278.125 148.475 C 278.125 117.549,277.819 111.966,275.694 104.102 C 274.612 100.098,275.430 99.995,266.406 105.273 M121.581 247.373 C 88.778 254.408,64.909 282.523,63.497 315.788 L 63.076 325.717 105.562 325.945 C 161.331 326.243,156.504 323.448,156.893 355.664 L 157.145 376.563 145.369 376.563 L 133.594 376.563 133.594 362.891 L 133.594 349.219 82.617 349.224 C 33.996 349.229,31.537 349.297,29.407 350.701 C 24.871 353.692,24.230 355.660,24.224 366.602 L 24.219 376.563 15.820 376.568 C 8.910 376.572,7.026 376.834,5.189 378.045 C -1.951 382.752,-1.951 393.811,5.189 398.517 C 8.691 400.826,391.309 400.826,394.811 398.517 C 401.951 393.811,401.951 382.752,394.811 378.045 C 392.974 376.834,391.090 376.572,384.180 376.568 L 375.781 376.563 375.776 366.602 C 375.770 355.660,375.129 353.692,370.593 350.701 C 368.463 349.297,366.004 349.229,317.383 349.224 L 266.406 349.219 266.406 362.891 L 266.406 376.563 254.631 376.563 L 242.855 376.563 243.107 355.664 C 243.390 332.215,243.567 331.386,249.004 328.005 L 251.953 326.172 294.438 325.945 L 336.924 325.717 336.503 315.788 C 335.015 280.734,307.651 250.774,273.189 246.468 C 268.960 245.940,268.939 245.948,263.967 249.976 C 261.227 252.197,257.189 255.129,254.996 256.493 L 251.007 258.972 250.509 269.925 C 249.028 302.512,229.243 323.498,200.000 323.498 C 170.735 323.498,150.973 302.537,149.491 269.925 L 148.993 258.972 145.004 256.493 C 142.811 255.129,138.817 252.232,136.129 250.054 C 130.709 245.662,130.092 245.548,121.581 247.373 M172.781 275.586 C 173.134 282.947,175.293 287.860,180.435 293.002 C 193.572 306.139,216.868 302.243,225.021 285.547 C 226.958 281.581,228.329 269.519,226.841 269.542 C 226.473 269.547,222.832 270.254,218.750 271.112 C 208.465 273.274,191.535 273.274,181.250 271.112 C 177.168 270.254,173.527 269.547,173.159 269.542 C 172.792 269.536,172.621 272.256,172.781 275.586 " stroke="none" fill="#ffffff" fill-rule="evenodd"/></g></svg>