<svg xmlns="http://www.w3.org/2000/svg" xmlns:xlink="http://www.w3.org/1999/xlink" id="svg" width="400" height="400" viewBox="0, 0, 400,400"><g id="svgg"><path id="path0" d="M193.033 2.019 C 191.713 3.129,189.417 6.602,187.929 9.737 L 185.225 15.436 179.917 15.998 C 164.614 17.621,160.540 28.146,171.255 38.374 L 176.015 42.918 175.015 49.896 C 172.930 64.444,181.060 70.188,194.253 63.487 L 200.000 60.568 205.747 63.487 C 218.940 70.188,227.070 64.444,224.985 49.896 L 223.985 42.918 228.745 38.374 C 239.445 28.161,235.385 17.621,220.129 16.003 L 214.866 15.445 212.127 9.751 C 207.399 -0.079,199.384 -3.325,193.033 2.019 M202.328 18.717 C 205.124 24.687,207.504 26.523,213.770 27.546 C 216.724 28.028,219.282 28.526,219.454 28.653 C 219.627 28.779,218.182 30.577,216.244 32.649 C 211.559 37.658,210.597 40.691,211.724 46.905 C 212.820 52.950,212.843 52.934,207.133 50.051 C 201.186 47.049,198.814 47.049,192.867 50.051 C 187.149 52.938,187.178 52.958,188.290 46.829 C 189.401 40.701,188.152 36.873,183.587 32.416 C 179.582 28.505,179.608 28.424,185.087 27.804 C 191.165 27.117,194.350 24.900,197.266 19.327 C 200.107 13.896,200.072 13.901,202.328 18.717 M137.074 31.605 C 133.894 34.785,134.511 37.169,140.845 46.193 C 143.974 50.650,148.578 57.203,151.075 60.754 C 157.136 69.373,160.447 70.874,164.489 66.832 C 167.956 63.365,167.265 61.577,156.592 46.388 C 143.922 28.357,141.873 26.806,137.074 31.605 M269.531 34.944 C 268.077 35.497,239.964 58.199,238.086 60.336 C 234.808 64.067,237.779 70.314,242.830 70.311 C 246.807 70.309,276.881 46.074,277.735 42.183 C 278.741 37.604,273.860 33.297,269.531 34.944 M106.250 68.750 C 104.242 70.758,104.130 75.819,106.055 77.549 C 107.693 79.022,141.818 89.063,145.185 89.063 C 148.034 89.063,150.781 85.985,150.781 82.794 C 150.781 78.490,149.107 77.629,130.300 72.257 C 111.000 66.744,108.605 66.395,106.250 68.750 M272.266 73.965 C 256.801 77.854,211.575 90.293,210.054 91.075 C 207.181 92.552,204.106 96.417,203.081 99.840 C 202.205 102.768,219.866 208.206,223.122 219.485 C 229.637 242.053,249.954 257.329,273.544 257.396 L 282.634 257.422 292.464 294.141 C 297.870 314.336,302.393 331.711,302.514 332.751 C 302.721 334.524,302.243 334.775,294.922 336.755 C 290.625 337.917,285.595 339.282,283.745 339.788 C 263.504 345.327,267.965 376.563,288.996 376.562 C 293.764 376.562,343.771 363.758,348.326 361.372 C 361.588 354.422,360.966 333.995,347.298 327.630 C 341.872 325.104,337.385 325.285,325.821 328.497 C 320.471 329.983,315.901 331.006,315.665 330.769 C 315.429 330.533,310.649 313.231,305.042 292.319 L 294.848 254.297 298.888 252.253 C 320.685 241.230,332.651 216.798,327.731 193.359 C 324.305 177.032,318.812 170.961,312.855 176.918 C 310.408 179.365,310.441 180.193,313.328 188.678 C 326.708 228.000,285.227 260.889,251.368 237.804 C 238.483 229.020,234.461 219.268,229.294 184.290 C 228.679 180.128,229.311 179.717,236.359 179.698 C 248.623 179.665,257.223 174.589,269.650 160.050 C 274.763 154.067,279.694 151.811,289.720 150.867 C 294.055 150.459,297.921 149.928,298.311 149.687 C 298.701 149.446,299.982 151.886,301.158 155.108 C 303.432 161.344,305.244 163.281,308.803 163.281 C 311.513 163.281,314.844 160.149,314.844 157.600 C 314.844 154.995,288.000 81.802,286.029 79.035 C 283.490 75.469,276.509 72.897,272.266 73.965 M285.334 111.835 C 295.289 139.095,295.133 138.279,290.384 138.287 C 276.408 138.312,266.275 143.398,256.856 155.115 C 250.091 163.531,245.117 166.247,234.653 167.237 C 230.482 167.632,226.886 167.771,226.662 167.547 C 225.719 166.605,215.110 103.468,215.771 102.734 C 216.596 101.819,274.237 86.113,275.391 86.490 C 275.820 86.630,280.295 98.035,285.334 111.835 M120.863 97.799 C 112.361 100.123,100.883 127.645,106.309 132.700 C 111.485 137.522,115.081 134.395,119.987 120.801 C 122.096 114.957,124.175 110.058,124.606 109.915 C 125.753 109.533,183.399 125.249,184.237 126.172 C 184.867 126.865,176.317 178.631,175.425 179.523 C 175.246 179.701,171.826 178.317,167.824 176.447 L 160.547 173.047 150.781 173.047 C 141.185 173.047,140.893 173.099,133.984 176.059 C 124.506 180.120,117.573 179.972,108.809 175.522 C 105.704 173.946,102.670 172.656,102.066 172.656 C 101.254 172.656,101.859 170.262,104.388 163.477 C 106.269 158.428,107.810 153.216,107.811 151.894 C 107.814 147.063,101.524 144.281,97.784 147.461 C 95.820 149.131,73.997 208.532,72.263 216.929 C 67.371 240.615,79.134 264.576,101.112 275.691 L 105.152 277.734 94.958 315.756 C 89.351 336.668,84.586 353.956,84.369 354.173 C 84.151 354.390,79.581 353.371,74.213 351.907 C 62.556 348.728,58.101 348.554,52.702 351.068 C 39.064 357.419,38.410 377.856,51.624 384.783 C 56.156 387.159,106.263 400.000,111.001 400.000 C 131.998 400.000,136.463 368.756,116.255 363.226 C 114.405 362.719,109.375 361.354,105.078 360.193 C 97.757 358.213,97.279 357.961,97.486 356.188 C 97.607 355.148,102.130 337.773,107.536 317.578 L 117.366 280.859 126.456 280.808 C 140.689 280.728,146.875 278.195,146.875 272.447 C 146.875 267.261,142.840 265.644,134.766 267.594 C 105.494 274.662,77.361 246.919,84.806 218.328 C 86.225 212.879,95.993 185.860,96.900 184.873 C 97.241 184.502,100.803 185.732,104.815 187.607 L 112.109 191.016 121.875 191.016 C 131.422 191.016,131.794 190.950,138.486 188.086 C 147.033 184.428,153.360 184.121,160.156 187.037 C 164.861 189.055,172.945 192.497,173.220 192.599 C 173.806 192.817,165.160 238.660,163.891 242.064 C 163.035 244.359,160.789 248.494,158.901 251.251 C 153.717 258.824,154.857 264.063,161.688 264.063 C 167.003 264.063,174.286 253.225,177.383 240.709 C 181.507 224.042,197.790 126.183,196.922 123.286 C 194.547 115.358,193.858 115.041,158.594 105.608 C 125.773 96.829,124.998 96.669,120.863 97.799 M343.395 340.199 C 345.910 342.714,345.983 346.763,343.555 349.011 C 342.318 350.156,334.335 352.629,316.633 357.351 C 286.707 365.333,286.281 365.379,283.955 360.882 C 280.507 354.212,282.118 353.308,311.766 345.265 C 340.091 337.582,340.683 337.487,343.395 340.199 M86.974 368.404 C 114.088 375.650,114.246 375.705,116.102 378.537 C 118.480 382.167,115.388 387.500,110.906 387.500 C 106.439 387.500,58.346 374.209,56.445 372.449 C 52.884 369.151,55.514 361.719,60.242 361.719 C 61.188 361.719,73.218 364.727,86.974 368.404 " stroke="none" fill="#ffffff" fill-rule="evenodd"/></g></svg>