<svg xmlns="http://www.w3.org/2000/svg" xmlns:xlink="http://www.w3.org/1999/xlink" id="svg" width="400" height="400" viewBox="0, 0, 400,400"><g id="svgg"><path id="path0" d="M260.547 0.859 C 212.963 10.363,183.613 56.423,195.630 102.734 C 212.526 167.846,297.016 185.975,339.323 133.567 C 374.228 90.329,356.189 23.990,304.338 4.907 C 292.935 0.710,271.303 -1.290,260.547 0.859 M120.292 178.832 C 60.679 255.184,62.450 252.392,64.221 267.223 L 64.898 272.894 57.939 280.002 C 38.642 299.709,37.127 323.481,54.046 341.100 C 71.154 358.916,95.564 357.975,115.530 338.729 C 128.529 326.198,135.705 324.460,142.676 332.152 C 150.544 340.835,148.262 346.006,127.398 366.787 L 112.504 381.621 121.669 390.811 C 126.710 395.865,131.209 400.000,131.667 400.000 C 133.671 400.000,166.856 365.230,168.949 360.938 C 182.825 332.478,163.570 300.745,132.453 300.791 C 119.608 300.809,112.463 304.151,100.230 315.858 C 88.779 326.817,84.930 328.397,77.734 325.093 C 66.720 320.035,66.774 309.931,77.878 298.408 L 83.984 292.071 89.230 292.986 C 96.215 294.204,103.590 292.980,109.607 289.604 C 113.012 287.693,232.893 194.888,242.072 187.058 L 243.964 185.444 238.974 183.653 C 209.987 173.250,184.099 147.626,174.194 119.531 C 173.209 116.738,172.187 114.198,171.923 113.886 C 171.659 113.573,148.425 142.799,120.292 178.832 " stroke="none" fill="#ffffff" fill-rule="evenodd"/></g></svg>